<svg xmlns="http://www.w3.org/2000/svg" viewBox="0 0 16 16"><g fill="none" stroke="#000" stroke-linecap="round" stroke-linejoin="round" stroke-miterlimit="10"><path d="M4 4.5H.5s.62.39.95 1.12C.86 6.24.5 7.08.5 8c0 1.93 1.57 3.5 3.5 3.5S7.5 9.93 7.5 8 5.93 4.5 4 4.5z"/><path d="m6.871 10 1.17 1.5L9.129 10M3 4.5a7.415 7.415 0 0 1 10 0"/><circle cx="4" cy="8" r="1.5"/><path d="M8.5 8c0 1.93 1.57 3.5 3.5 3.5s3.5-1.57 3.5-3.5c0-.92-.36-1.76-.95-2.38.33-.73.95-1.12.95-1.12H12c-1.93 0-3.5 1.57-3.5 3.5z"/><circle cx="12" cy="8" r="1.5"/></g></svg>